# xmcd
#
# Track frame offsets: 
#        150
#        15545
#        33222
#        44237
#        56577
#        71345
#        78095
#        98410
#        108445
#        119187
#
# Disc length: 1888 seconds
#
# Revision: 0
# Processed by: cddbd v1.5.2PL0 Copyright (c) Steve Scherf et al.
# Submitted via: ExactAudioCopy v1.0b3
#
DISCID=7c075e0a
DTITLE=Various Artist - Living Sacrifice - I Bowed My Knees and Cried
DTITLE=Holy
DYEAR=1996
DGENRE=Country
TTITLE0=Operator
TTITLE1=Old Soldiers Never Die
TTITLE2=Jubilee's Comin'
TTITLE3=Full Circle
TTITLE4=God Knows What He's Doing
TTITLE5=Tis So Sweet to Trust In Jesus
TTITLE6=My God Forgets
TTITLE7=Give the World a Smile
TTITLE8=There Has Never Been
TTITLE9=I Bowed on My Knees and Cried Holy
EXTD=
EXTT0=
EXTT1=
EXTT2=
EXTT3=
EXTT4=
EXTT5=
EXTT6=
EXTT7=
EXTT8=
EXTT9=
PLAYORDER=
